<?xml version="1.0" standalone="no"?>
<!DOCTYPE svg PUBLIC "-//W3C//DTD SVG 20010904//EN"
 "http://www.w3.org/TR/2001/REC-SVG-20010904/DTD/svg10.dtd">
<svg version="1.0" xmlns="http://www.w3.org/2000/svg"
 width="512.000000pt" height="512.000000pt" viewBox="0 0 512.000000 512.000000"
 preserveAspectRatio="xMidYMid meet">
<metadata>
Created by potrace 1.11, written by Peter Selinger 2001-2013
</metadata>
<g transform="translate(0.000000,512.000000) scale(0.100000,-0.100000)"
fill="#000000" stroke="none">
<path d="M213 4806 c-84 -21 -146 -74 -189 -161 l-24 -50 0 -2112 0 -2113 29
-32 29 -33 2502 0 2502 0 29 33 29 32 0 2113 0 2112 -24 50 c-44 89 -105 140
-194 161 -81 19 -4610 19 -4689 0z m4672 -231 l25 -24 0 -226 0 -225 -2350 0
-2350 0 0 225 0 226 25 24 24 25 2301 0 2301 0 24 -25z m25 -2370 l0 -1685
-2350 0 -2350 0 0 1685 0 1685 2350 0 2350 0 0 -1685z"/>
<path d="M749 3352 c-28 -25 -32 -36 -32 -76 0 -38 5 -53 27 -74 l26 -27 665
0 664 0 22 22 c14 14 23 38 26 70 5 42 2 54 -20 79 l-25 29 -661 3 -660 2 -32
-28z"/>
<path d="M1813 2663 c-12 -2 -34 -18 -48 -34 -50 -61 -23 -147 53 -169 25 -8
236 -10 664 -8 618 3 627 3 655 24 37 28 49 80 29 128 -28 68 -11 66 -708 65
-343 -1 -633 -4 -645 -6z"/>
<path d="M2825 1941 c-39 -16 -60 -51 -60 -98 0 -38 5 -49 33 -74 l33 -29 659
2 c659 3 659 3 681 24 13 13 23 39 26 66 5 40 2 49 -25 79 l-30 34 -649 2
c-356 1 -657 -2 -668 -6z"/>
<path d="M770 1117 c-34 -17 -62 -74 -54 -112 3 -16 19 -42 35 -58 l30 -27
660 2 661 3 24 28 c33 39 33 105 0 144 l-24 28 -654 2 c-509 2 -658 0 -678
-10z"/>
</g>
</svg>
